<svg width="61" height="54" viewBox="0 0 61 54" fill="none" xmlns="http://www.w3.org/2000/svg">
<g filter="url(#filter0_d_344_23)">
<path d="M7.98 7.84V8.24C7.52667 8.25333 7.18 8.30667 6.94 8.4C6.71333 8.48 6.56 8.64 6.48 8.88C6.4 9.10667 6.36 9.46667 6.36 9.96V20.12C6.36 20.5333 6.38667 20.84 6.44 21.04C6.50667 21.24 6.62667 21.3733 6.8 21.44C6.98667 21.5067 7.26 21.54 7.62 21.54H8.6C9.05333 21.54 9.48 21.4333 9.88 21.22C10.28 21.0067 10.64 20.7067 10.96 20.32C11.28 19.92 11.5467 19.4467 11.76 18.9C11.9733 18.3533 12.1333 17.7467 12.24 17.08H12.7C12.66 17.5333 12.64 18.12 12.64 18.84C12.64 19.1467 12.6467 19.5933 12.66 20.18C12.6733 20.7667 12.7133 21.3733 12.78 22C12.1 21.9733 11.3333 21.96 10.48 21.96C9.62667 21.9467 8.86667 21.94 8.2 21.94C7.86667 21.94 7.44 21.94 6.92 21.94C6.4 21.94 5.84 21.9467 5.24 21.96C4.64 21.96 4.03333 21.9667 3.42 21.98C2.80667 21.98 2.22667 21.9867 1.68 22V21.6C2.10667 21.5733 2.42667 21.52 2.64 21.44C2.85333 21.36 2.99333 21.2 3.06 20.96C3.14 20.72 3.18 20.36 3.18 19.88V9.96C3.18 9.46667 3.14 9.10667 3.06 8.88C2.99333 8.64 2.84667 8.48 2.62 8.4C2.40667 8.30667 2.09333 8.25333 1.68 8.24V7.84C2.01333 7.85333 2.46 7.86667 3.02 7.88C3.59333 7.89333 4.2 7.9 4.84 7.9C5.42667 7.9 6 7.89333 6.56 7.88C7.13333 7.86667 7.60667 7.85333 7.98 7.84ZM16.3066 6.5C16.8666 6.5 17.3066 6.64 17.6266 6.92C17.9599 7.18667 18.1266 7.56 18.1266 8.04C18.1266 8.52 17.9599 8.9 17.6266 9.18C17.3066 9.44667 16.8666 9.58 16.3066 9.58C15.7466 9.58 15.2999 9.44667 14.9666 9.18C14.6466 8.9 14.4866 8.52 14.4866 8.04C14.4866 7.56 14.6466 7.18667 14.9666 6.92C15.2999 6.64 15.7466 6.5 16.3066 6.5ZM17.8666 11.44V20.14C17.8666 20.7 17.9599 21.08 18.1466 21.28C18.3466 21.48 18.6799 21.58 19.1466 21.58V22C18.9066 21.9867 18.5332 21.9733 18.0266 21.96C17.5199 21.9333 17.0066 21.92 16.4866 21.92C15.9666 21.92 15.4399 21.9333 14.9066 21.96C14.3732 21.9733 13.9732 21.9867 13.7066 22V21.58C14.1732 21.58 14.4999 21.48 14.6866 21.28C14.8866 21.08 14.9866 20.7 14.9866 20.14V13.84C14.9866 13.24 14.8932 12.8 14.7066 12.52C14.5332 12.2267 14.1999 12.08 13.7066 12.08V11.66C14.1332 11.7 14.5466 11.72 14.9466 11.72C15.5066 11.72 16.0266 11.7 16.5066 11.66C16.9999 11.6067 17.4532 11.5333 17.8666 11.44ZM24.0752 8.38V11.66H26.4352V12.06H24.0752V20.14C24.0752 20.54 24.1485 20.8267 24.2952 21C24.4418 21.16 24.6618 21.24 24.9552 21.24C25.1952 21.24 25.4352 21.1533 25.6752 20.98C25.9152 20.7933 26.1285 20.48 26.3152 20.04L26.6552 20.22C26.4418 20.82 26.1152 21.3133 25.6752 21.7C25.2485 22.0867 24.6618 22.28 23.9152 22.28C23.4752 22.28 23.0885 22.22 22.7552 22.1C22.4218 21.9933 22.1418 21.8267 21.9152 21.6C21.6218 21.3067 21.4285 20.9467 21.3352 20.52C21.2418 20.08 21.1952 19.5133 21.1952 18.82V12.06H19.5152V11.66H21.1952V9.02C21.7552 9.02 22.2685 8.97333 22.7352 8.88C23.2152 8.77333 23.6618 8.60667 24.0752 8.38ZM32.1283 11.38C33.3016 11.38 34.2216 11.7267 34.8883 12.42C35.5549 13.1133 35.8883 14.2467 35.8883 15.82H29.3083L29.2683 15.44H33.3683C33.3816 14.7867 33.3416 14.1867 33.2483 13.64C33.1549 13.08 33.0083 12.6333 32.8083 12.3C32.6083 11.9667 32.3416 11.8 32.0083 11.8C31.5416 11.8 31.1416 12.0933 30.8083 12.68C30.4883 13.2667 30.2949 14.24 30.2283 15.6L30.2883 15.72C30.2749 15.88 30.2616 16.0467 30.2483 16.22C30.2483 16.3933 30.2483 16.5733 30.2483 16.76C30.2483 17.68 30.3749 18.4267 30.6283 19C30.8949 19.5733 31.2283 19.9933 31.6283 20.26C32.0283 20.5133 32.4349 20.64 32.8483 20.64C33.1283 20.64 33.4149 20.6 33.7083 20.52C34.0149 20.4267 34.3216 20.2667 34.6283 20.04C34.9349 19.8 35.2216 19.4667 35.4883 19.04L35.8483 19.16C35.6883 19.6667 35.4349 20.16 35.0883 20.64C34.7416 21.12 34.3016 21.5133 33.7683 21.82C33.2349 22.1267 32.5949 22.28 31.8483 22.28C30.9416 22.28 30.1416 22.0867 29.4483 21.7C28.7549 21.3133 28.2083 20.7267 27.8083 19.94C27.4216 19.1533 27.2283 18.1533 27.2283 16.94C27.2283 15.7 27.4349 14.6667 27.8483 13.84C28.2749 13.0133 28.8549 12.4 29.5883 12C30.3349 11.5867 31.1816 11.38 32.1283 11.38ZM43.8092 11.38C44.2359 11.38 44.5826 11.4733 44.8492 11.66C45.1159 11.8333 45.3092 12.06 45.4292 12.34C45.5626 12.62 45.6292 12.9133 45.6292 13.22C45.6292 13.7133 45.4826 14.12 45.1892 14.44C44.9092 14.7467 44.5359 14.9 44.0692 14.9C43.6026 14.9 43.2359 14.7867 42.9692 14.56C42.7159 14.32 42.5892 14.0067 42.5892 13.62C42.5892 13.2467 42.6692 12.94 42.8292 12.7C43.0026 12.4467 43.2159 12.2333 43.4692 12.06C43.2826 12.0067 43.0959 12.0133 42.9092 12.08C42.6559 12.12 42.4159 12.2267 42.1892 12.4C41.9626 12.56 41.7692 12.7667 41.6092 13.02C41.4492 13.26 41.3226 13.5267 41.2292 13.82C41.1359 14.1 41.0892 14.3733 41.0892 14.64V19.94C41.0892 20.58 41.2426 21.0133 41.5492 21.24C41.8692 21.4667 42.3426 21.58 42.9692 21.58V22C42.6626 21.9867 42.2159 21.9733 41.6292 21.96C41.0426 21.9333 40.4292 21.92 39.7892 21.92C39.2559 21.92 38.7159 21.9333 38.1692 21.96C37.6226 21.9733 37.2092 21.9867 36.9292 22V21.58C37.3959 21.58 37.7226 21.48 37.9092 21.28C38.1092 21.08 38.2092 20.7 38.2092 20.14V13.84C38.2092 13.24 38.1159 12.8 37.9292 12.52C37.7559 12.2267 37.4226 12.08 36.9292 12.08V11.66C37.3559 11.7 37.7692 11.72 38.1692 11.72C38.7292 11.72 39.2492 11.7 39.7292 11.66C40.2226 11.6067 40.6759 11.5333 41.0892 11.44V13.3C41.2492 12.94 41.4626 12.6133 41.7292 12.32C41.9959 12.0267 42.3026 11.8 42.6492 11.64C42.9959 11.4667 43.3826 11.38 43.8092 11.38ZM49.0252 22.14C48.4252 22.14 47.9252 22.0267 47.5252 21.8C47.1252 21.5733 46.8318 21.2733 46.6452 20.9C46.4585 20.5133 46.3652 20.0933 46.3652 19.64C46.3652 19.0667 46.4918 18.6 46.7452 18.24C47.0118 17.88 47.3518 17.5867 47.7652 17.36C48.1785 17.1333 48.6118 16.9467 49.0652 16.8C49.5318 16.6533 49.9718 16.5133 50.3852 16.38C50.8118 16.2333 51.1518 16.0667 51.4052 15.88C51.6718 15.68 51.8052 15.4267 51.8052 15.12V13.56C51.8052 13.2133 51.7452 12.9067 51.6252 12.64C51.5185 12.36 51.3452 12.1467 51.1052 12C50.8785 11.8533 50.5785 11.78 50.2052 11.78C49.9385 11.78 49.6718 11.82 49.4052 11.9C49.1385 11.9667 48.9185 12.0867 48.7452 12.26C49.1185 12.3933 49.4052 12.6 49.6052 12.88C49.8185 13.1467 49.9252 13.4533 49.9252 13.8C49.9252 14.2533 49.7652 14.6133 49.4452 14.88C49.1385 15.1467 48.7718 15.28 48.3452 15.28C47.8652 15.28 47.4985 15.1333 47.2452 14.84C47.0052 14.5333 46.8852 14.1667 46.8852 13.74C46.8852 13.3533 46.9785 13.0333 47.1652 12.78C47.3652 12.5267 47.6385 12.2867 47.9852 12.06C48.3585 11.8467 48.8052 11.68 49.3252 11.56C49.8585 11.44 50.4318 11.38 51.0452 11.38C51.6585 11.38 52.2118 11.4467 52.7052 11.58C53.1985 11.7 53.6118 11.9267 53.9452 12.26C54.2518 12.5667 54.4518 12.9467 54.5452 13.4C54.6385 13.84 54.6852 14.4 54.6852 15.08V20.52C54.6852 20.8533 54.7185 21.0867 54.7852 21.22C54.8518 21.34 54.9652 21.4 55.1252 21.4C55.2452 21.4 55.3585 21.3667 55.4652 21.3C55.5852 21.2333 55.7118 21.1533 55.8452 21.06L56.0452 21.4C55.7652 21.64 55.4385 21.8267 55.0652 21.96C54.7052 22.08 54.2985 22.14 53.8452 22.14C53.3518 22.14 52.9585 22.0733 52.6652 21.94C52.3718 21.7933 52.1585 21.6 52.0252 21.36C51.9052 21.12 51.8452 20.84 51.8452 20.52C51.5252 21.0267 51.1385 21.4267 50.6852 21.72C50.2318 22 49.6785 22.14 49.0252 22.14ZM50.4452 20.86C50.7118 20.86 50.9518 20.8 51.1652 20.68C51.3918 20.5467 51.6052 20.3333 51.8052 20.04V15.94C51.6852 16.14 51.5185 16.32 51.3052 16.48C51.0918 16.64 50.8652 16.8067 50.6252 16.98C50.3852 17.14 50.1518 17.32 49.9252 17.52C49.7118 17.72 49.5385 17.9667 49.4052 18.26C49.2718 18.5533 49.2052 18.9067 49.2052 19.32C49.2052 19.84 49.3185 20.2267 49.5452 20.48C49.7718 20.7333 50.0718 20.86 50.4452 20.86Z" fill="#453938"/>
<path d="M29.16 48V47.6C29.5867 47.5733 29.9067 47.52 30.12 47.44C30.3333 47.36 30.4733 47.2 30.54 46.96C30.62 46.72 30.66 46.36 30.66 45.88V35.96C30.66 35.4667 30.62 35.1067 30.54 34.88C30.4733 34.64 30.3267 34.48 30.1 34.4C29.8867 34.3067 29.5733 34.2533 29.16 34.24V33.84C29.52 33.8533 29.9867 33.8667 30.56 33.88C31.1467 33.8933 31.7267 33.9 32.3 33.9C32.9133 33.9 33.4867 33.8933 34.02 33.88C34.5667 33.8667 35.0067 33.8533 35.34 33.84V34.24C34.9133 34.2533 34.5867 34.3067 34.36 34.4C34.1467 34.48 34.0067 34.64 33.94 34.88C33.8733 35.1067 33.84 35.4667 33.84 35.96V45.88C33.84 46.36 33.8733 46.72 33.94 46.96C34.02 47.2 34.1667 47.36 34.38 47.44C34.5933 47.52 34.9133 47.5733 35.34 47.6V48C35.0067 47.9733 34.5667 47.96 34.02 47.96C33.4867 47.9467 32.9133 47.94 32.3 47.94C31.7267 47.94 31.1467 47.9467 30.56 47.96C29.9867 47.96 29.52 47.9733 29.16 48ZM20.68 48V47.6C21.1067 47.5733 21.4267 47.52 21.64 47.44C21.8533 47.36 21.9933 47.2 22.06 46.96C22.14 46.72 22.18 46.36 22.18 45.88V35.96C22.18 35.4667 22.14 35.1067 22.06 34.88C21.9933 34.64 21.8467 34.48 21.62 34.4C21.4067 34.3067 21.0933 34.2533 20.68 34.24V33.84C21.0267 33.8533 21.4733 33.8667 22.02 33.88C22.58 33.8933 23.1867 33.9 23.84 33.9C24.4 33.9 24.9533 33.8933 25.5 33.88C26.0467 33.8667 26.5 33.8533 26.86 33.84V34.24C26.4333 34.2533 26.1067 34.3067 25.88 34.4C25.6667 34.48 25.5267 34.64 25.46 34.88C25.3933 35.1067 25.36 35.4667 25.36 35.96V45.88C25.36 46.36 25.3933 46.72 25.46 46.96C25.54 47.2 25.6867 47.36 25.9 47.44C26.1133 47.52 26.4333 47.5733 26.86 47.6V48C26.5 47.9733 26.0467 47.96 25.5 47.96C24.9533 47.9467 24.4 47.94 23.84 47.94C23.1867 47.94 22.58 47.9467 22.02 47.96C21.4733 47.96 21.0267 47.9733 20.68 48ZM24.06 41.08V40.68H31.96V41.08H24.06ZM46.2017 37.44V45.82C46.2017 46.42 46.2951 46.8667 46.4817 47.16C46.6684 47.44 47.0017 47.58 47.4817 47.58V48C47.0684 47.96 46.6551 47.94 46.2417 47.94C45.6817 47.94 45.1617 47.96 44.6817 48C44.2017 48.04 43.7484 48.1133 43.3217 48.22V46.42C43.0017 47.0867 42.5551 47.5667 41.9817 47.86C41.4217 48.14 40.7951 48.28 40.1017 48.28C39.5417 48.28 39.0884 48.2067 38.7417 48.06C38.3951 47.9133 38.1217 47.7267 37.9217 47.5C37.6951 47.2467 37.5351 46.9133 37.4417 46.5C37.3484 46.0867 37.3017 45.5533 37.3017 44.9V39.84C37.3017 39.24 37.2084 38.8 37.0217 38.52C36.8484 38.2267 36.5151 38.08 36.0217 38.08V37.66C36.4484 37.7 36.8617 37.72 37.2617 37.72C37.8217 37.72 38.3417 37.7 38.8217 37.66C39.3151 37.6067 39.7684 37.5333 40.1817 37.44V45.72C40.1817 46.0533 40.2084 46.3467 40.2617 46.6C40.3284 46.8533 40.4484 47.0533 40.6217 47.2C40.7951 47.3333 41.0484 47.4 41.3817 47.4C41.7417 47.4 42.0617 47.3 42.3417 47.1C42.6351 46.9 42.8684 46.6267 43.0417 46.28C43.2284 45.92 43.3217 45.52 43.3217 45.08V39.84C43.3217 39.24 43.2284 38.8 43.0417 38.52C42.8684 38.2267 42.5351 38.08 42.0417 38.08V37.66C42.4684 37.7 42.8817 37.72 43.2817 37.72C43.8417 37.72 44.3617 37.7 44.8417 37.66C45.3351 37.6067 45.7884 37.5333 46.2017 37.44ZM55.2306 37.38C56.2706 37.38 57.1306 37.8067 57.8106 38.66C58.504 39.5 58.8506 40.8 58.8506 42.56C58.8506 43.9467 58.6373 45.06 58.2106 45.9C57.7973 46.74 57.244 47.3467 56.5506 47.72C55.8573 48.0933 55.0973 48.28 54.2706 48.28C53.724 48.28 53.2173 48.1867 52.7506 48C52.284 47.8133 51.884 47.5067 51.5506 47.08L51.8306 46.98C52.0706 47.2733 52.3506 47.4933 52.6706 47.64C53.004 47.7867 53.3306 47.86 53.6506 47.86C54.384 47.86 54.9306 47.4467 55.2906 46.62C55.6506 45.7933 55.8306 44.5333 55.8306 42.84C55.8306 41.6933 55.7573 40.7867 55.6106 40.12C55.4773 39.44 55.2773 38.96 55.0106 38.68C54.744 38.3867 54.424 38.24 54.0506 38.24C53.584 38.24 53.1573 38.4333 52.7706 38.82C52.384 39.1933 52.164 39.72 52.1106 40.4L52.0106 39.7C52.2506 38.94 52.6573 38.3667 53.2306 37.98C53.804 37.58 54.4706 37.38 55.2306 37.38ZM52.1706 32.36V47.6C51.8373 47.5467 51.4973 47.5467 51.1506 47.6C50.804 47.6533 50.484 47.7467 50.1906 47.88C49.8973 48 49.6506 48.1467 49.4506 48.32L49.1506 48.14C49.204 47.9533 49.2373 47.7667 49.2506 47.58C49.2773 47.3933 49.2906 47.2067 49.2906 47.02V34.76C49.2906 34.16 49.1973 33.72 49.0106 33.44C48.8373 33.1467 48.504 33 48.0106 33V32.58C48.4373 32.62 48.8506 32.64 49.2506 32.64C49.7973 32.64 50.3173 32.62 50.8106 32.58C51.304 32.5267 51.7573 32.4533 52.1706 32.36Z" fill="#453938"/>
<path d="M12 25.5459H16.6364V41.0004L14.3182 38.0641L12 41.0004V25.5459Z" fill="#A0311F"/>
</g>
<g filter="url(#filter1_d_344_23)">
<rect x="2" y="24" width="18" height="23" fill="#FEFCF9"/>
<rect x="1" y="25" width="18" height="23" fill="#E4BB6B"/>
<path d="M2 24L1.5 24.5L1 25H2V24Z" fill="white"/>
<path d="M19 48L19.5 47.5L20 47H19V48Z" fill="white"/>
<path d="M16.0918 26.3633H12.0009V39.9996L14.0463 37.4087L16.0918 39.9996V26.3633Z" fill="#A0311F"/>
<path d="M16.0918 25H12.0009V38.6364L14.0463 36.0455L16.0918 38.6364V25Z" fill="#F13C1F"/>
</g>
<defs>
<filter id="filter0_d_344_23" x="0.679688" y="6.5" width="59.1719" height="43.8203" filterUnits="userSpaceOnUse" color-interpolation-filters="sRGB">
<feFlood flood-opacity="0" result="BackgroundImageFix"/>
<feColorMatrix in="SourceAlpha" type="matrix" values="0 0 0 0 0 0 0 0 0 0 0 0 0 0 0 0 0 0 127 0" result="hardAlpha"/>
<feOffset dy="1"/>
<feGaussianBlur stdDeviation="0.5"/>
<feComposite in2="hardAlpha" operator="out"/>
<feColorMatrix type="matrix" values="0 0 0 0 0 0 0 0 0 0 0 0 0 0 0 0 0 0 0.25 0"/>
<feBlend mode="normal" in2="BackgroundImageFix" result="effect1_dropShadow_344_23"/>
<feBlend mode="normal" in="SourceGraphic" in2="effect1_dropShadow_344_23" result="shape"/>
</filter>
<filter id="filter1_d_344_23" x="0" y="24" width="21" height="26" filterUnits="userSpaceOnUse" color-interpolation-filters="sRGB">
<feFlood flood-opacity="0" result="BackgroundImageFix"/>
<feColorMatrix in="SourceAlpha" type="matrix" values="0 0 0 0 0 0 0 0 0 0 0 0 0 0 0 0 0 0 127 0" result="hardAlpha"/>
<feOffset dy="1"/>
<feGaussianBlur stdDeviation="0.5"/>
<feComposite in2="hardAlpha" operator="out"/>
<feColorMatrix type="matrix" values="0 0 0 0 0 0 0 0 0 0 0 0 0 0 0 0 0 0 0.25 0"/>
<feBlend mode="normal" in2="BackgroundImageFix" result="effect1_dropShadow_344_23"/>
<feBlend mode="normal" in="SourceGraphic" in2="effect1_dropShadow_344_23" result="shape"/>
</filter>
</defs>
</svg>
