<svg width="35" height="29" viewBox="0 0 35 29" fill="none" xmlns="http://www.w3.org/2000/svg">
<path d="M3.5 29C2.5375 29 1.71383 28.6454 1.029 27.9361C0.344167 27.2268 0.00116667 26.3731 0 25.375V3.625C0 2.62812 0.343 1.77504 1.029 1.06575C1.715 0.356458 2.53867 0.00120833 3.5 0H31.5C32.4625 0 33.2867 0.35525 33.9727 1.06575C34.6587 1.77625 35.0012 2.62933 35 3.625V25.375C35 26.3719 34.6576 27.2256 33.9727 27.9361C33.2879 28.6466 32.4637 29.0012 31.5 29H3.5ZM17.5 16.3125L31.5 7.25V3.625L17.5 12.6875L3.5 3.625V7.25L17.5 16.3125Z" fill="#453938"/>
</svg>
